<?xml version="1.0" encoding="UTF-8" standalone="no"?>
<svg
   width="128"
   height="128"
   version="1.1"
   id="svg6"
   sodipodi:docname="icon.svg"
   inkscape:version="1.4.2 (ebf0e940d0, 2025-05-08)"
   xml:space="preserve"
   xmlns:inkscape="http://www.inkscape.org/namespaces/inkscape"
   xmlns:sodipodi="http://sodipodi.sourceforge.net/DTD/sodipodi-0.dtd"
   xmlns="http://www.w3.org/2000/svg"
   xmlns:svg="http://www.w3.org/2000/svg"><defs
     id="defs6"><inkscape:path-effect
       effect="fillet_chamfer"
       id="path-effect9"
       is_visible="true"
       lpeversion="1"
       nodesatellites_param="F,0,0,1,0,0,0,1 @ F,0,0,1,0,0,0,1 @ F,0,0,1,0,0,0,1 @ F,0,0,1,0,0,0,1"
       radius="0"
       unit="px"
       method="auto"
       mode="F"
       chamfer_steps="1"
       flexible="false"
       use_knot_distance="true"
       apply_no_radius="true"
       apply_with_radius="true"
       only_selected="false"
       hide_knots="false" /></defs><sodipodi:namedview
     id="namedview6"
     pagecolor="#505050"
     bordercolor="#eeeeee"
     borderopacity="1"
     inkscape:showpageshadow="0"
     inkscape:pageopacity="0"
     inkscape:pagecheckerboard="0"
     inkscape:deskcolor="#505050"
     inkscape:zoom="4.3554688"
     inkscape:cx="128.91839"
     inkscape:cy="92.182959"
     inkscape:window-width="2560"
     inkscape:window-height="1367"
     inkscape:window-x="0"
     inkscape:window-y="0"
     inkscape:window-maximized="1"
     inkscape:current-layer="svg6"
     showgrid="false" /><rect
     width="124"
     height="124"
     x="2"
     y="2"
     fill="#363d52"
     stroke="#212532"
     stroke-width="4"
     rx="14"
     id="rect1"
     style="display:inline" /><g
     fill="#ffffff"
     transform="matrix(0.07159622,0,0,0.07159622,53.472461,54.664179)"
     id="g4"
     style="stroke-width:1.41069"><path
       d="m 105,673 v 33 q 407,354 814,0 v -33 z"
       id="path1"
       style="stroke-width:1.41069" /><path
       fill="#478cbf"
       d="m 105,673 152,14 q 12,1 15,14 l 4,67 132,10 8,-61 q 2,-11 15,-15 h 162 q 13,4 15,15 l 8,61 132,-10 4,-67 q 3,-13 15,-14 L 919,673 V 427 q 30,-39 56,-81 -35,-59 -83,-108 -43,20 -82,47 -40,-37 -88,-64 7,-51 8,-102 -59,-28 -123,-42 -26,43 -46,89 -49,-7 -98,0 -20,-46 -46,-89 -64,14 -123,42 1,51 8,102 -48,27 -88,64 -39,-27 -82,-47 -48,49 -83,108 26,42 56,81 z m 0,33 v 39 c 0,276 813,276 814,0 v -39 l -134,12 -5,69 q -2,10 -14,13 l -162,11 q -12,0 -16,-11 L 578,735 H 446 l -10,65 q -4,11 -16,11 L 258,800 q -12,-3 -14,-13 l -5,-69 z"
       id="path2"
       style="stroke-width:1.41069" /><path
       d="m 483,600 c 0,34 58,34 58,0 v -86 c 0,-34 -58,-34 -58,0 z"
       id="path3"
       style="stroke-width:1.41069" /><circle
       cx="725"
       cy="526"
       r="90"
       id="circle3"
       style="stroke-width:1.41069" /><circle
       cx="299"
       cy="526"
       r="90"
       id="circle4"
       style="stroke-width:1.41069" /></g><g
     fill="#414042"
     transform="matrix(0.07403777,0,0,0.07159622,51.632209,52.421659)"
     id="g6"
     style="stroke-width:1.38723"><circle
       cx="307"
       cy="532"
       r="60"
       id="circle5"
       style="stroke-width:1.38723" /><circle
       cx="717"
       cy="532"
       r="60"
       id="circle6"
       style="stroke-width:1.38723" /></g><path
     id="path14"
     style="fill:#ffffff;stroke-width:1;fill-opacity:1"
     d="m 65.678236,5.169922 c 0,5.782695 -0.06239,11.569953 0.121197,17.349954 C 71.74006,16.820074 77.524037,10.957739 83.379242,5.169922 Z m 17.939221,0 V 22.756001 L 65.678236,40.54477 V 58.130849 H 101.09697 V 40.563577 C 95.270779,46.340713 89.443643,52.117586 83.617457,57.894724 V 39.986847 c 5.826185,-5.6536 11.65332,-11.30769 17.479513,-16.961288 V 5.169922 Z" /><path
     style="fill:#ffffff;stroke-width:1;fill-opacity:1"
     d="M 40.381249,54.47935 H 4.9641732 V 40.093134 C 16.694682,28.452232 28.425189,16.811328 40.155696,5.1704248 H 58.085309 C 46.282604,16.888903 34.479901,28.607382 22.677198,40.325862 h 35.182611 v 31.959487 h -17.47856 z"
     id="path12" /><path
     id="path4"
     style="fill:#000000;stroke-width:1"
     d="m 6.9648438,40.925781 c 0,3.850912 -10e-8,7.701823 0,11.552735 11.8053382,0 23.6106772,0 35.4160152,0 0,5.935546 0,11.871093 0,17.80664 4.492839,0 8.985677,0 13.478516,0 0,-9.319661 0,-18.639323 0,-27.958984 -12.678385,0 -25.356771,0 -38.035156,0 C 29.62787,30.608346 41.429564,18.888547 53.232422,7.1699219 c -4.083985,0 -8.167969,0 -12.251953,0 C 29.641927,18.421875 18.303385,29.673828 6.9648438,40.925781 Z" /><path
     id="path5"
     style="fill:#000000;stroke-width:1"
     d="m 67.671875,9.5078125 c -0.007,2.7943315 2.79e-4,5.5886115 0.0293,8.3828125 3.630639,-3.550554 7.225251,-7.139402 10.824219,-10.7207031 -3.616537,0 -7.233073,0 -10.84961,0 -0.0013,0.7792968 -0.0026,1.5585937 -0.0039,2.3378906 z M 85.617188,22.755859 c 0.151698,0.652229 -0.151618,1.114562 -0.662803,1.490337 -5.758884,5.710903 -11.517767,11.421807 -17.276651,17.13271 0,4.917318 0,9.834636 0,14.751953 4.646485,0 9.292969,0 13.939454,0 0,-5.663411 0,-11.326823 0,-16.990234 5.826333,-5.65415 11.653725,-11.307209 17.480468,-16.960937 0,-5.003256 0,-10.006511 0,-15.0097661 -4.493489,0 -8.986979,0 -13.480468,0 0,5.1953121 -10e-7,10.3906251 0,15.5859371 z m 2.61914,33.375 c 3.620443,0 7.240886,0 10.861328,0 0,-3.589192 0,-7.178385 0,-10.767578 -3.620442,3.589193 -7.240885,7.178386 -10.861328,10.767578 z" /></svg>
