<?xml version="1.0" encoding="UTF-8" standalone="no"?>
<svg
   width="128"
   height="128"
   version="1.1"
   id="svg6"
   sodipodi:docname="icon2.svg"
   inkscape:version="1.4.2 (ebf0e940d0, 2025-05-08)"
   xml:space="preserve"
   xmlns:inkscape="http://www.inkscape.org/namespaces/inkscape"
   xmlns:sodipodi="http://sodipodi.sourceforge.net/DTD/sodipodi-0.dtd"
   xmlns="http://www.w3.org/2000/svg"
   xmlns:svg="http://www.w3.org/2000/svg"><defs
     id="defs6"><inkscape:path-effect
       effect="fillet_chamfer"
       id="path-effect9"
       is_visible="true"
       lpeversion="1"
       nodesatellites_param="F,0,0,1,0,0,0,1 @ F,0,0,1,0,0,0,1 @ F,0,0,1,0,0,0,1 @ F,0,0,1,0,0,0,1"
       radius="0"
       unit="px"
       method="auto"
       mode="F"
       chamfer_steps="1"
       flexible="false"
       use_knot_distance="true"
       apply_no_radius="true"
       apply_with_radius="true"
       only_selected="false"
       hide_knots="false" /></defs><sodipodi:namedview
     id="namedview6"
     pagecolor="#505050"
     bordercolor="#eeeeee"
     borderopacity="1"
     inkscape:showpageshadow="0"
     inkscape:pageopacity="0"
     inkscape:pagecheckerboard="0"
     inkscape:deskcolor="#505050"
     inkscape:zoom="4.3554688"
     inkscape:cx="54.873542"
     inkscape:cy="94.938116"
     inkscape:window-width="2560"
     inkscape:window-height="1367"
     inkscape:window-x="0"
     inkscape:window-y="0"
     inkscape:window-maximized="1"
     inkscape:current-layer="svg6"
     showgrid="false" /><rect
     width="124"
     height="124"
     x="2"
     y="2"
     fill="#363d52"
     stroke="#212532"
     stroke-width="4"
     rx="14"
     id="rect1"
     style="display:inline" /><g
     fill="#ffffff"
     transform="matrix(0.04784685,0,0,0.04784685,76.628092,77.273575)"
     id="g4"
     style="stroke-width:2.1109"><path
       d="m 105,673 v 33 q 407,354 814,0 v -33 z"
       id="path1"
       style="stroke-width:2.1109" /><path
       fill="#478cbf"
       d="m 105,673 152,14 q 12,1 15,14 l 4,67 132,10 8,-61 q 2,-11 15,-15 h 162 q 13,4 15,15 l 8,61 132,-10 4,-67 q 3,-13 15,-14 L 919,673 V 427 q 30,-39 56,-81 -35,-59 -83,-108 -43,20 -82,47 -40,-37 -88,-64 7,-51 8,-102 -59,-28 -123,-42 -26,43 -46,89 -49,-7 -98,0 -20,-46 -46,-89 -64,14 -123,42 1,51 8,102 -48,27 -88,64 -39,-27 -82,-47 -48,49 -83,108 26,42 56,81 z m 0,33 v 39 c 0,276 813,276 814,0 v -39 l -134,12 -5,69 q -2,10 -14,13 l -162,11 q -12,0 -16,-11 L 578,735 H 446 l -10,65 q -4,11 -16,11 L 258,800 q -12,-3 -14,-13 l -5,-69 z"
       id="path2"
       style="stroke-width:2.1109" /><path
       d="m 483,600 c 0,34 58,34 58,0 v -86 c 0,-34 -58,-34 -58,0 z"
       id="path3"
       style="stroke-width:2.1109" /><circle
       cx="725"
       cy="526"
       r="90"
       id="circle3"
       style="stroke-width:2.1109" /><circle
       cx="299"
       cy="526"
       r="90"
       id="circle4"
       style="stroke-width:2.1109" /></g><g
     fill="#414042"
     transform="matrix(0.04947851,0,0,0.04784685,75.089894,75.886346)"
     id="g6"
     style="stroke-width:2.0758"><circle
       cx="307"
       cy="532"
       r="60"
       id="circle5"
       style="stroke-width:2.0758" /><circle
       cx="717"
       cy="532"
       r="60"
       id="circle6"
       style="stroke-width:2.0758" /></g><path
     id="path14"
     style="fill:#ffffff;fill-opacity:1;stroke-width:1"
     d="m 66.354601,53.925224 c -2.891347,5.007961 -5.839008,9.988679 -8.570018,15.0861 7.994635,-1.96586 15.934874,-4.150803 23.899539,-6.235597 z m 15.535821,8.969611 -8.793039,15.229991 -24.430206,6.435916 -8.79304,15.229991 30.673519,17.709367 8.783644,-15.2137 c -7.934201,2.09005 -15.869085,4.1794 -23.803279,6.26945 L 64.48196,93.047176 c 7.872424,-1.983069 15.745916,-3.966087 23.618346,-5.949148 l 8.92782,-15.463435 z" /><path
     style="fill:#ffffff;stroke-width:1;fill-opacity:1"
     d="M 40.381249,54.47935 H 4.9641732 V 40.093134 C 16.694682,28.452232 28.425189,16.811328 40.155696,5.1704248 H 58.085309 C 46.282604,16.888903 34.479901,28.607382 22.677198,40.325862 h 35.182611 v 31.959487 h -17.47856 z"
     id="path12" /><path
     id="path4"
     style="fill:#000000;stroke-width:1"
     d="m 6.9648438,40.925781 c 0,3.850912 -10e-8,7.701823 0,11.552735 11.8053382,0 23.6106772,0 35.4160152,0 0,5.935546 0,11.871093 0,17.80664 4.492839,0 8.985677,0 13.478516,0 0,-9.319661 0,-18.639323 0,-27.958984 -12.678385,0 -25.356771,0 -38.035156,0 C 29.62787,30.608346 41.429564,18.888547 53.232422,7.1699219 c -4.083985,0 -8.167969,0 -12.251953,0 C 29.641927,18.421875 18.303385,29.673828 6.9648438,40.925781 Z" /><path
     id="path5"
     style="fill:#000000;stroke-width:1"
     d="m 65.912197,58.678768 c -1.403228,2.416462 -2.794063,4.840019 -4.166031,7.274378 4.919503,-1.259551 9.826952,-2.570279 14.7344,-3.872293 -3.132012,-1.808268 -6.264025,-3.616536 -9.396037,-5.424804 -0.390775,0.67424 -0.781548,1.348481 -1.172323,2.022722 z m 8.917074,20.445801 c -0.19474,0.640695 -0.688586,0.88943 -1.319173,0.959268 -7.842791,2.066345 -15.685581,4.132691 -23.528372,6.199036 -2.45866,4.258522 -4.917319,8.517045 -7.375977,12.775566 4.023972,2.323241 8.047947,4.646481 12.071921,6.969731 2.831705,-4.90466 5.663411,-9.80932 8.495117,-14.713978 7.872827,-1.983471 15.746027,-3.965468 23.618999,-5.948367 2.50163,-4.332948 5.00325,-8.665895 7.50488,-12.998841 -3.89148,-2.246746 -7.78295,-4.493489 -11.674426,-6.740233 -2.597657,4.499273 -5.195314,8.998545 -7.792969,13.497818 z M 60.410012,109.33774 c 3.135396,1.81022 6.270793,3.62044 9.406189,5.43066 1.794596,-3.10833 3.589186,-6.21667 5.383785,-9.325 -4.929989,1.29811 -9.859981,2.59623 -14.789974,3.89434 z" /><rect
     style="display:inline;fill:#478cbf;fill-opacity:1;stroke:none;stroke-width:5;stroke-linecap:square"
     id="rect2"
     width="29.847532"
     height="4.4197307"
     x="86.385651"
     y="95.454712" /><rect
     style="display:inline;fill:#478cbf;fill-opacity:1;stroke:none;stroke-width:5;stroke-linecap:square"
     id="rect6"
     width="9.0116577"
     height="5.0511212"
     x="86.61525"
     y="103.77759" /><rect
     style="display:inline;fill:#478cbf;fill-opacity:1;stroke:none;stroke-width:5;stroke-linecap:square"
     id="rect7"
     width="9.0116577"
     height="5.0511212"
     x="106.87714"
     y="103.77759" /></svg>
